<svg id="Layer_1" data-name="Layer 1" xmlns="http://www.w3.org/2000/svg" viewBox="0 0 255.09 40"><defs><style>.cls-1{fill:#ef2d64;}</style></defs><title>monitor ink</title><path class="cls-1" d="M167.23,367.23a8.26,8.26,0,0,0-4.58,1.3,7,7,0,0,0-2.84,3.75,7.22,7.22,0,0,0-2.92-3.77,8.56,8.56,0,0,0-4.69-1.28,8.2,8.2,0,0,0-4,1,6.74,6.74,0,0,0-2.79,2.92V367.6h-2.64v20.57h2.64V377a8.06,8.06,0,0,1,1.73-5.58,5.93,5.93,0,0,1,4.63-1.92,5.72,5.72,0,0,1,4.45,1.77,7.34,7.34,0,0,1,1.62,5.12v11.76h2.6V377a8.06,8.06,0,0,1,1.73-5.58,5.93,5.93,0,0,1,4.63-1.92,5.68,5.68,0,0,1,4.41,1.77,7.34,7.34,0,0,1,1.62,5.12v11.76h2.6V376.12q0-4.33-2.28-6.61A8,8,0,0,0,167.23,367.23Z" transform="translate(-92.48 -356.39)"/><path class="cls-1" d="M195,368.6a10.69,10.69,0,0,0-5.26-1.3,10.58,10.58,0,0,0-5.24,1.3,9.48,9.48,0,0,0-3.69,3.69,11.15,11.15,0,0,0-1.36,5.6,11.28,11.28,0,0,0,1.34,5.6,9.4,9.4,0,0,0,3.65,3.69,10.48,10.48,0,0,0,5.22,1.3,10.8,10.8,0,0,0,5.27-1.3,9.38,9.38,0,0,0,3.73-3.71,12.26,12.26,0,0,0,0-11.17A9.33,9.33,0,0,0,195,368.6Zm1.24,13.87a7,7,0,0,1-2.81,2.79,7.89,7.89,0,0,1-3.77.92,7.78,7.78,0,0,1-3.75-.92,6.83,6.83,0,0,1-2.75-2.79,10.63,10.63,0,0,1,0-9.16,6.81,6.81,0,0,1,2.77-2.79,8.15,8.15,0,0,1,7.54,0,6.93,6.93,0,0,1,2.79,2.79,9.18,9.18,0,0,1,1.05,4.58A9,9,0,0,1,196.26,382.47Z" transform="translate(-92.48 -356.39)"/><path class="cls-1" d="M213.95,367.23a8.65,8.65,0,0,0-4.18,1,6.73,6.73,0,0,0-2.83,2.88v-3.5H204.3v20.57h2.64V376.95a7.8,7.8,0,0,1,1.77-5.54,6.21,6.21,0,0,1,4.75-1.88A6,6,0,0,1,218,371.3a7.18,7.18,0,0,1,1.68,5.12v11.76h2.6V376.12q0-4.33-2.34-6.61A8.27,8.27,0,0,0,213.95,367.23Z" transform="translate(-92.48 -356.39)"/><rect class="cls-1" x="135.11" y="11.22" width="2.64" height="20.57"/><path class="cls-1" d="M228.91,359.84a1.88,1.88,0,0,0-1.36.55,1.83,1.83,0,0,0-.56,1.38,1.89,1.89,0,0,0,.56,1.39,1.91,1.91,0,0,0,2.71,0,1.89,1.89,0,0,0,.56-1.39,1.83,1.83,0,0,0-.56-1.38A1.88,1.88,0,0,0,228.91,359.84Z" transform="translate(-92.48 -356.39)"/><path class="cls-1" d="M239.08,362.44H236.4v5.16h-2.86v2.22h2.86V382.6q0,3,1.36,4.28a5.79,5.79,0,0,0,4.14,1.3h2.83v-2.26h-2.41a3.52,3.52,0,0,1-2.52-.72,3.66,3.66,0,0,1-.72-2.6V369.83h5.65V367.6h-5.65Z" transform="translate(-92.48 -356.39)"/><path class="cls-1" d="M262.83,368.6a10.69,10.69,0,0,0-5.26-1.3,10.58,10.58,0,0,0-5.24,1.3,9.48,9.48,0,0,0-3.69,3.69,11.15,11.15,0,0,0-1.36,5.6,11.28,11.28,0,0,0,1.34,5.6,9.4,9.4,0,0,0,3.65,3.69,10.48,10.48,0,0,0,5.22,1.3,10.8,10.8,0,0,0,5.27-1.3,9.38,9.38,0,0,0,3.73-3.71,12.26,12.26,0,0,0,0-11.17A9.33,9.33,0,0,0,262.83,368.6Zm1.24,13.87a7,7,0,0,1-2.81,2.79,7.89,7.89,0,0,1-3.77.92,7.78,7.78,0,0,1-3.75-.92,6.83,6.83,0,0,1-2.75-2.79,10.63,10.63,0,0,1,0-9.16,6.81,6.81,0,0,1,2.77-2.79,8.15,8.15,0,0,1,7.54,0,6.93,6.93,0,0,1,2.79,2.79,9.18,9.18,0,0,1,1.05,4.58A9,9,0,0,1,264.08,382.47Z" transform="translate(-92.48 -356.39)"/><path class="cls-1" d="M274.76,371.26V367.6h-2.64v20.57h2.64V376.68q0-3.62,1.73-5.16a6.65,6.65,0,0,1,4.6-1.54h.72v-2.75a8.51,8.51,0,0,0-4.39,1.06A6.44,6.44,0,0,0,274.76,371.26Z" transform="translate(-92.48 -356.39)"/><rect class="cls-1" x="198.87" y="11.07" width="6.44" height="21.03"/><path class="cls-1" d="M294.59,358.29a3.91,3.91,0,0,0-2.77,1,3.28,3.28,0,0,0-1.07,2.51,3.23,3.23,0,0,0,1.07,2.47,3.9,3.9,0,0,0,2.77,1,3.85,3.85,0,0,0,2.73-1,3.23,3.23,0,0,0,1.07-2.47,3.28,3.28,0,0,0-1.07-2.51A3.86,3.86,0,0,0,294.59,358.29Z" transform="translate(-92.48 -356.39)"/><path class="cls-1" d="M314.71,367.23A8.38,8.38,0,0,0,311,368a6.8,6.8,0,0,0-2.64,2.2v-2.79H301.9v21h6.44V377.06a4.61,4.61,0,0,1,1.09-3.28,4.28,4.28,0,0,1,5.88,0,4.61,4.61,0,0,1,1.09,3.28v11.42h6.41V376.19a9.34,9.34,0,0,0-2.2-6.58A7.63,7.63,0,0,0,314.71,367.23Z" transform="translate(-92.48 -356.39)"/><polygon class="cls-1" points="246.27 21.62 255.01 11.06 247.06 11.06 240.7 19.62 240.7 4.21 234.25 4.21 234.25 32.09 240.7 32.09 240.7 23.27 247.1 32.09 255.09 32.09 246.27 21.62"/><path class="cls-1" d="M112.48,356.39a20,20,0,1,0,20,20A20,20,0,0,0,112.48,356.39Zm0,37a17,17,0,1,1,17-17A17,17,0,0,1,112.48,393.39Z" transform="translate(-92.48 -356.39)"/><path class="cls-1" d="M120.45,371.54,114,378l-3.93-4A1.5,1.5,0,0,0,108,374l-5.58,5.08a1.5,1.5,0,0,0,2,2.22l4.52-4.11,4,4.05a1.5,1.5,0,0,0,1.07.45h0a1.5,1.5,0,0,0,1.07-.45l7.5-7.58a1.5,1.5,0,1,0-2.13-2.11Z" transform="translate(-92.48 -356.39)"/></svg>